# xmcd CD database file
#
# Track frame offsets:
#	150
#	21092
#	42385
#
# Disc length: 840 seconds
#
# Revision: 0
# Processed by: cddbd v1.5.1PL2 Copyright (c) Steve Scherf et al.
# Submitted via: CDex 1.51
#
DISCID=1d034603
DTITLE=ALI PROJECT - 雨のソナタ 〜La Pluie〜
DYEAR=1995
DGENRE=JPop
TTITLE0=雨のソナタ 〜La Pluie〜
TTITLE1=Nous Deux C'est Pour La Vie (雨のソナタ 〜La Pluie〜French Version)
TTITLE2=雨のソナタ 〜La Pluie〜 オリジナル・カラオケ
EXTD=YEAR: 1995
EXTT0=
EXTT1=
EXTT2=
PLAYORDER=
